<?xml version="1.0" encoding="UTF-8" standalone="no"?>
<!DOCTYPE svg PUBLIC "-//W3C//DTD SVG 1.1//EN"
 "http://www.w3.org/Graphics/SVG/1.1/DTD/svg11.dtd">
<!-- Generated by graphviz version 2.38.0 (20140413.2041)
 -->
<!-- Title: G Pages: 1 -->
<svg width="14303pt" height="1150pt"
 viewBox="0.00 0.00 14303.00 1149.60" xmlns="http://www.w3.org/2000/svg" xmlns:xlink="http://www.w3.org/1999/xlink">
<g id="graph0" class="graph" transform="scale(1 1) rotate(0) translate(4 1145.6)">
<title>G</title>
<polygon fill="white" stroke="none" points="-4,4 -4,-1145.6 14299,-1145.6 14299,4 -4,4"/>
<g id="clust1" class="cluster"><title>cluster_0</title>
<polygon fill="lightgray" stroke="lightgrey" points="8,-79 8,-923.6 868,-923.6 868,-79 8,-79"/>
<text text-anchor="middle" x="438.367" y="-892.6" font-family="Times,serif" font-size="30.00">C:/Users/HP/Desktop/DIU project/fruver&#45;project/client/src/app/App.js</text>
</g>
<g id="clust2" class="cluster"><title>cluster_1</title>
<polygon fill="lightgray" stroke="lightgrey" points="2034,-309.6 2034,-911.2 2911,-911.2 2911,-309.6 2034,-309.6"/>
<text text-anchor="middle" x="2472.69" y="-880.2" font-family="Times,serif" font-size="30.00">C:/Users/HP/Desktop/DIU project/fruver&#45;project/client/src/app/App.css</text>
</g>
<g id="clust7" class="cluster"><title>cluster_14</title>
<polygon fill="lightgray" stroke="lightgrey" points="876,-66.6 876,-441.4 2026,-441.4 2026,-66.6 876,-66.6"/>
<text text-anchor="middle" x="1451.33" y="-410.4" font-family="Times,serif" font-size="30.00">C:/Users/HP/Desktop/DIU project/fruver&#45;project/client/src/app/components/contact/Contact.js</text>
</g>
<g id="clust3" class="cluster"><title>cluster_10</title>
<polygon fill="lightgray" stroke="lightgrey" points="2919,-811.4 2919,-908.4 3979,-908.4 3979,-811.4 2919,-811.4"/>
<text text-anchor="middle" x="3449.35" y="-877.4" font-family="Times,serif" font-size="30.00">C:/Users/HP/Desktop/DIU project/fruver&#45;project/client/src/app/actions/itemsActions.js</text>
</g>
<g id="clust4" class="cluster"><title>cluster_11</title>
<polygon fill="lightgray" stroke="lightgrey" points="3987,-811.4 3987,-908.4 5045,-908.4 5045,-811.4 3987,-811.4"/>
<text text-anchor="middle" x="4516.5" y="-877.4" font-family="Times,serif" font-size="30.00">C:/Users/HP/Desktop/DIU project/fruver&#45;project/client/src/app/actions/orderActions.js</text>
</g>
<g id="clust5" class="cluster"><title>cluster_12</title>
<polygon fill="lightgray" stroke="lightgrey" points="5053,-586.2 5053,-1133.6 6221,-1133.6 6221,-586.2 5053,-586.2"/>
<text text-anchor="middle" x="5637.49" y="-1102.6" font-family="Times,serif" font-size="30.00">C:/Users/HP/Desktop/DIU project/fruver&#45;project/client/src/app/actions/constants/actionTypes.js</text>
</g>
<g id="clust6" class="cluster"><title>cluster_13</title>
<polygon fill="lightgray" stroke="lightgrey" points="6229,-150 6229,-911.2 7367,-911.2 7367,-150 6229,-150"/>
<text text-anchor="middle" x="6798.47" y="-880.2" font-family="Times,serif" font-size="30.00">C:/Users/HP/Desktop/DIU project/fruver&#45;project/client/src/app/components/header/Navbar.js</text>
</g>
<g id="clust8" class="cluster"><title>cluster_2</title>
<polygon fill="lightgray" stroke="lightgrey" points="7375,-811.4 7375,-908.4 8232,-908.4 8232,-811.4 7375,-811.4"/>
<text text-anchor="middle" x="7803.7" y="-877.4" font-family="Times,serif" font-size="30.00">C:/Users/HP/Desktop/DIU project/fruver&#45;project/client/src/app/API.js</text>
</g>
<g id="clust9" class="cluster"><title>cluster_3</title>
<polygon fill="lightgray" stroke="lightgrey" points="8240,-771 8240,-948.8 9107,-948.8 9107,-771 8240,-771"/>
<text text-anchor="middle" x="8673.69" y="-917.8" font-family="Times,serif" font-size="30.00">C:/Users/HP/Desktop/DIU project/fruver&#45;project/client/src/app/store.js</text>
</g>
<g id="clust10" class="cluster"><title>cluster_4</title>
<polygon fill="lightgray" stroke="lightgrey" points="9115,-811.4 9115,-908.4 10014,-908.4 10014,-811.4 9115,-811.4"/>
<text text-anchor="middle" x="9564.5" y="-877.4" font-family="Times,serif" font-size="30.00">C:/Users/HP/Desktop/DIU project/fruver&#45;project/client/src/app/reducer.js</text>
</g>
<g id="clust11" class="cluster"><title>cluster_5</title>
<polygon fill="lightgray" stroke="lightgrey" points="7770,-79 7770,-441.4 8755,-441.4 8755,-79 7770,-79"/>
<text text-anchor="middle" x="8262.83" y="-410.4" font-family="Times,serif" font-size="30.00">C:/Users/HP/Desktop/DIU project/fruver&#45;project/client/src/app/reducers/home.js</text>
</g>
<g id="clust12" class="cluster"><title>cluster_6</title>
<polygon fill="lightgray" stroke="lightgrey" points="10022,-811.4 10022,-908.4 11070,-908.4 11070,-811.4 10022,-811.4"/>
<text text-anchor="middle" x="10546.5" y="-877.4" font-family="Times,serif" font-size="30.00">C:/Users/HP/Desktop/DIU project/fruver&#45;project/client/src/app/actions/alertActions.js</text>
</g>
<g id="clust13" class="cluster"><title>cluster_7</title>
<polygon fill="lightgray" stroke="lightgrey" points="11078,-811.4 11078,-908.4 12125,-908.4 12125,-811.4 11078,-811.4"/>
<text text-anchor="middle" x="11601.7" y="-877.4" font-family="Times,serif" font-size="30.00">C:/Users/HP/Desktop/DIU project/fruver&#45;project/client/src/app/actions/authActions.js</text>
</g>
<g id="clust14" class="cluster"><title>cluster_8</title>
<polygon fill="lightgray" stroke="lightgrey" points="12133,-8 12133,-911.2 13195,-911.2 13195,-8 12133,-8"/>
<text text-anchor="middle" x="12664.2" y="-880.2" font-family="Times,serif" font-size="30.00">C:/Users/HP/Desktop/DIU project/fruver&#45;project/client/src/app/actions/homeActions.js</text>
</g>
<g id="clust15" class="cluster"><title>cluster_9</title>
<polygon fill="lightgray" stroke="lightgrey" points="13203,-811.4 13203,-908.4 14287,-908.4 14287,-811.4 13203,-811.4"/>
<text text-anchor="middle" x="13745" y="-877.4" font-family="Times,serif" font-size="30.00">C:/Users/HP/Desktop/DIU project/fruver&#45;project/client/src/app/actions/invoiceActions.js</text>
</g>
<!-- 0 -->
<g id="node1" class="node"><title>0</title>
<polygon fill="lightyellow" stroke="black" points="763.959,-819.9 763.959,-855.9 860.041,-855.9 860.041,-819.9 763.959,-819.9"/>
<text text-anchor="middle" x="812" y="-833.8" font-family="Times,serif" font-size="14.00">«GLOBAL»</text>
</g>
<!-- 14 -->
<g id="node22" class="node"><title>14</title>
<polygon fill="lightyellow" stroke="black" points="998.959,-350.1 998.959,-386.1 1095.04,-386.1 1095.04,-350.1 998.959,-350.1"/>
<text text-anchor="middle" x="1047" y="-364" font-family="Times,serif" font-size="14.00">«GLOBAL»</text>
</g>
<!-- 0&#45;&gt;14 -->
<g id="edge6" class="edge"><title>0&#45;&gt;14</title>
<path fill="none" stroke="black" d="M867.722,-772.737C908.43,-722.785 962.061,-650.078 995,-578.2 1013.42,-538.014 1025.91,-490.374 1034.03,-450.724"/>
<polygon fill="black" stroke="black" points="1037.48,-451.316 1036,-440.825 1030.61,-449.949 1037.48,-451.316"/>
</g>
<!-- 20 -->
<g id="node2" class="node"><title>20</title>
<polygon fill="khaki" stroke="black" points="640.559,-817.1 640.559,-858.7 723.441,-858.7 723.441,-817.1 640.559,-817.1"/>
<text text-anchor="middle" x="682" y="-842.1" font-family="Times,serif" font-size="14.00">«CLASS»</text>
<text text-anchor="middle" x="682" y="-825.3" font-family="Times,serif" font-size="14.00"> App</text>
</g>
<!-- 21 -->
<g id="node3" class="node"><title>21</title>
<polygon fill="lightblue" stroke="black" points="452.318,-347.3 452.318,-388.9 601.682,-388.9 601.682,-347.3 452.318,-347.3"/>
<text text-anchor="middle" x="527" y="-372.3" font-family="Times,serif" font-size="14.00">«FUNCTION»</text>
<text text-anchor="middle" x="527" y="-355.5" font-family="Times,serif" font-size="14.00"> componentDidMount()</text>
</g>
<!-- 20&#45;&gt;21 -->
<g id="edge7" class="edge"><title>20&#45;&gt;21</title>
<path fill="none" stroke="black" d="M671.639,-805.63C642.051,-716.333 557.752,-461.912 533.563,-388.907"/>
<polygon fill="black" stroke="black" points="671.665,-805.707 677.349,-810.144 675.439,-817.098 669.755,-812.661 671.665,-805.707"/>
</g>
<!-- 22 -->
<g id="node4" class="node"><title>22</title>
<polygon fill="lightblue" stroke="black" points="608.638,-276.1 608.638,-460.1 825.362,-460.1 825.362,-276.1 608.638,-276.1"/>
<text text-anchor="middle" x="717" y="-443.5" font-family="Times,serif" font-size="14.00">«FUNCTION»</text>
<text text-anchor="middle" x="717" y="-426.7" font-family="Times,serif" font-size="14.00"> render()</text>
<polyline fill="none" stroke="black" points="608.638,-418.5 825.362,-418.5 "/>
<text text-anchor="start" x="616.638" y="-401.9" font-family="Times,serif" font-size="14.00">&#45;className : binaryexpression</text>
<text text-anchor="start" x="616.638" y="-385.1" font-family="Times,serif" font-size="14.00">&#45;component : binaryexpression</text>
<text text-anchor="start" x="616.638" y="-368.3" font-family="Times,serif" font-size="14.00">&#45;mapStateToProps : variable = state</text>
<text text-anchor="start" x="616.638" y="-351.5" font-family="Times,serif" font-size="14.00">&#45;path : string = about</text>
<text text-anchor="start" x="616.638" y="-334.7" font-family="Times,serif" font-size="14.00">&#45;path : string = login</text>
<text text-anchor="start" x="616.638" y="-317.9" font-family="Times,serif" font-size="14.00">&#45;path : string = register</text>
<text text-anchor="start" x="616.638" y="-301.1" font-family="Times,serif" font-size="14.00">&#45;path : string</text>
<text text-anchor="start" x="616.638" y="-284.3" font-family="Times,serif" font-size="14.00">&#45;strains : binaryexpression</text>
</g>
<!-- 20&#45;&gt;22 -->
<g id="edge8" class="edge"><title>20&#45;&gt;22</title>
<path fill="none" stroke="black" d="M684.399,-804.836C689.636,-734.835 702.258,-566.142 710.171,-460.378"/>
<polygon fill="black" stroke="black" points="684.377,-805.131 687.918,-811.413 683.482,-817.098 679.94,-810.816 684.377,-805.131"/>
</g>
<!-- 23 -->
<g id="node5" class="node"><title>23</title>
<polygon fill="khaki" stroke="black" points="582.204,-87.5 582.204,-129.1 695.796,-129.1 695.796,-87.5 582.204,-87.5"/>
<text text-anchor="middle" x="639" y="-112.5" font-family="Times,serif" font-size="14.00">«BLOCK»</text>
<text text-anchor="middle" x="639" y="-95.7" font-family="Times,serif" font-size="14.00"> ReturnStatement</text>
</g>
<!-- 22&#45;&gt;23 -->
<g id="edge9" class="edge"><title>22&#45;&gt;23</title>
<path fill="none" stroke="black" d="M685.873,-264.223C670.674,-213.987 653.81,-158.25 645.043,-129.272"/>
<polygon fill="black" stroke="black" points="685.915,-264.361 691.481,-268.945 689.39,-275.847 683.824,-271.262 685.915,-264.361"/>
</g>
<!-- 24 -->
<g id="node6" class="node"><title>24</title>
<polygon fill="khaki" stroke="black" points="703.204,-87.5 703.204,-129.1 816.796,-129.1 816.796,-87.5 703.204,-87.5"/>
<text text-anchor="middle" x="760" y="-112.5" font-family="Times,serif" font-size="14.00">«BLOCK»</text>
<text text-anchor="middle" x="760" y="-95.7" font-family="Times,serif" font-size="14.00"> ReturnStatement</text>
</g>
<!-- 22&#45;&gt;24 -->
<g id="edge10" class="edge"><title>22&#45;&gt;24</title>
<path fill="none" stroke="black" d="M734.212,-263.905C742.578,-213.753 751.846,-158.189 756.669,-129.272"/>
<polygon fill="black" stroke="black" points="734.195,-264.01 737.153,-270.586 732.221,-275.847 729.262,-269.27 734.195,-264.01"/>
</g>
<!-- 25 -->
<g id="node7" class="node"><title>25</title>
<polygon fill="lightblue" stroke="black" points="305.253,-804.7 305.253,-871.1 564.747,-871.1 564.747,-804.7 305.253,-804.7"/>
<text text-anchor="middle" x="435" y="-854.5" font-family="Times,serif" font-size="14.00">«FUNCTION»</text>
<text text-anchor="middle" x="435" y="-837.7" font-family="Times,serif" font-size="14.00"> function</text>
<polyline fill="none" stroke="black" points="305.253,-829.5 564.747,-829.5 "/>
<text text-anchor="start" x="313.253" y="-812.9" font-family="Times,serif" font-size="14.00">&#45;mapDispatchToProps : variable = dispatch</text>
</g>
<!-- 26 -->
<g id="node8" class="node"><title>26</title>
<polygon fill="lightblue" stroke="black" points="50.96,-817.1 50.96,-858.7 161.04,-858.7 161.04,-817.1 50.96,-817.1"/>
<text text-anchor="middle" x="106" y="-842.1" font-family="Times,serif" font-size="14.00">«FUNCTION»</text>
<text text-anchor="middle" x="106" y="-825.3" font-family="Times,serif" font-size="14.00"> function</text>
</g>
<!-- 27 -->
<g id="node9" class="node"><title>27</title>
<polygon fill="lightblue" stroke="black" points="50.96,-347.3 50.96,-388.9 161.04,-388.9 161.04,-347.3 50.96,-347.3"/>
<text text-anchor="middle" x="106" y="-372.3" font-family="Times,serif" font-size="14.00">«FUNCTION»</text>
<text text-anchor="middle" x="106" y="-355.5" font-family="Times,serif" font-size="14.00"> function</text>
</g>
<!-- 26&#45;&gt;27 -->
<g id="edge11" class="edge"><title>26&#45;&gt;27</title>
<path fill="none" stroke="black" d="M106,-805.08C106,-715.293 106,-461.763 106,-388.907"/>
<polygon fill="black" stroke="black" points="106,-805.098 110,-811.098 106,-817.098 102,-811.098 106,-805.098"/>
</g>
<!-- 1 -->
<g id="node10" class="node"><title>1</title>
<polygon fill="lightgreen" stroke="black" points="2341.26,-817.1 2341.26,-858.7 2762.74,-858.7 2762.74,-817.1 2341.26,-817.1"/>
<text text-anchor="middle" x="2552" y="-842.1" font-family="Times,serif" font-size="14.00">«CSS»</text>
<text text-anchor="middle" x="2552" y="-825.3" font-family="Times,serif" font-size="14.00"> C:/Users/HP/Desktop/DIU project/fruver&#45;project/client/src/app/App.css</text>
</g>
<!-- 15 -->
<g id="node11" class="node"><title>15</title>
<polygon fill="palegreen" stroke="black" points="2059.68,-343.3 2059.68,-392.9 2186.32,-392.9 2186.32,-343.3 2059.68,-343.3"/>
<text text-anchor="middle" x="2123" y="-376.3" font-family="Times,serif" font-size="14.00">.App</text>
<polyline fill="none" stroke="black" points="2059.68,-368.1 2186.32,-368.1 "/>
<text text-anchor="start" x="2067.68" y="-351.5" font-family="Times,serif" font-size="14.00">+text&#45;align = center</text>
</g>
<!-- 1&#45;&gt;15 -->
<g id="edge1" class="edge"><title>1&#45;&gt;15</title>
<path fill="none" stroke="black" d="M2496.45,-811.52C2417.07,-772.489 2271.79,-690.325 2190,-578.2 2147.65,-520.146 2131.34,-434.216 2125.69,-392.937"/>
<polygon fill="black" stroke="black" points="2496.87,-811.724 2504.02,-810.745 2507.67,-816.964 2500.52,-817.943 2496.87,-811.724"/>
</g>
<!-- 16 -->
<g id="node12" class="node"><title>16</title>
<polygon fill="palegreen" stroke="black" points="2192.95,-334.9 2192.95,-401.3 2465.05,-401.3 2465.05,-334.9 2192.95,-334.9"/>
<text text-anchor="middle" x="2329" y="-384.7" font-family="Times,serif" font-size="14.00">.App&#45;logo</text>
<polyline fill="none" stroke="black" points="2192.95,-376.5 2465.05,-376.5 "/>
<text text-anchor="start" x="2200.95" y="-359.9" font-family="Times,serif" font-size="14.00">+animation = App&#45;logo&#45;spin infinite 20s lin...</text>
<text text-anchor="start" x="2200.95" y="-343.1" font-family="Times,serif" font-size="14.00">+height = 80px</text>
</g>
<!-- 1&#45;&gt;16 -->
<g id="edge2" class="edge"><title>1&#45;&gt;16</title>
<path fill="none" stroke="black" d="M2537.39,-806.244C2497.25,-722.039 2385.56,-487.751 2344.45,-401.506"/>
<polygon fill="black" stroke="black" points="2537.4,-806.266 2543.59,-809.961 2542.56,-817.098 2536.37,-813.403 2537.4,-806.266"/>
</g>
<!-- 17 -->
<g id="node13" class="node"><title>17</title>
<polygon fill="palegreen" stroke="black" points="2472.35,-318.1 2472.35,-418.1 2631.65,-418.1 2631.65,-318.1 2472.35,-318.1"/>
<text text-anchor="middle" x="2552" y="-401.5" font-family="Times,serif" font-size="14.00">.App&#45;header</text>
<polyline fill="none" stroke="black" points="2472.35,-393.3 2631.65,-393.3 "/>
<text text-anchor="start" x="2480.35" y="-376.7" font-family="Times,serif" font-size="14.00">+background&#45;color = 222</text>
<text text-anchor="start" x="2480.35" y="-359.9" font-family="Times,serif" font-size="14.00">+color = white</text>
<text text-anchor="start" x="2480.35" y="-343.1" font-family="Times,serif" font-size="14.00">+height = 150px</text>
<text text-anchor="start" x="2480.35" y="-326.3" font-family="Times,serif" font-size="14.00">+padding = 20px</text>
</g>
<!-- 1&#45;&gt;17 -->
<g id="edge3" class="edge"><title>1&#45;&gt;17</title>
<path fill="none" stroke="black" d="M2552,-804.95C2552,-724.711 2552,-514.292 2552,-418.215"/>
<polygon fill="black" stroke="black" points="2552,-805.098 2556,-811.098 2552,-817.098 2548,-811.098 2552,-805.098"/>
</g>
<!-- 18 -->
<g id="node14" class="node"><title>18</title>
<polygon fill="palegreen" stroke="black" points="2638.81,-343.3 2638.81,-392.9 2761.19,-392.9 2761.19,-343.3 2638.81,-343.3"/>
<text text-anchor="middle" x="2700" y="-376.3" font-family="Times,serif" font-size="14.00">.App&#45;title</text>
<polyline fill="none" stroke="black" points="2638.81,-368.1 2761.19,-368.1 "/>
<text text-anchor="start" x="2646.81" y="-351.5" font-family="Times,serif" font-size="14.00">+font&#45;size = 1.5em</text>
</g>
<!-- 1&#45;&gt;18 -->
<g id="edge4" class="edge"><title>1&#45;&gt;18</title>
<path fill="none" stroke="black" d="M2562.28,-805.184C2578.05,-756.434 2609.12,-660.125 2635,-578.2 2656.18,-511.137 2680.69,-431.802 2692.66,-392.955"/>
<polygon fill="black" stroke="black" points="2562.22,-805.377 2564.17,-812.317 2558.52,-816.793 2556.56,-809.853 2562.22,-805.377"/>
</g>
<!-- 19 -->
<g id="node15" class="node"><title>19</title>
<polygon fill="palegreen" stroke="black" points="2768.13,-343.3 2768.13,-392.9 2883.87,-392.9 2883.87,-343.3 2768.13,-343.3"/>
<text text-anchor="middle" x="2826" y="-376.3" font-family="Times,serif" font-size="14.00">.App&#45;intro</text>
<polyline fill="none" stroke="black" points="2768.13,-368.1 2883.87,-368.1 "/>
<text text-anchor="start" x="2776.13" y="-351.5" font-family="Times,serif" font-size="14.00">+font&#45;size = large</text>
</g>
<!-- 1&#45;&gt;19 -->
<g id="edge5" class="edge"><title>1&#45;&gt;19</title>
<path fill="none" stroke="black" d="M2582.17,-808.275C2627.83,-763.373 2714.39,-671.799 2764,-578.2 2797.07,-515.806 2814.86,-433.345 2822.08,-393.17"/>
<polygon fill="black" stroke="black" points="2581.94,-808.502 2580.43,-815.554 2573.34,-816.876 2574.85,-809.824 2581.94,-808.502"/>
</g>
<!-- 10 -->
<g id="node16" class="node"><title>10</title>
<polygon fill="lightyellow" stroke="black" points="3400.96,-819.9 3400.96,-855.9 3497.04,-855.9 3497.04,-819.9 3400.96,-819.9"/>
<text text-anchor="middle" x="3449" y="-833.8" font-family="Times,serif" font-size="14.00">«GLOBAL»</text>
</g>
<!-- 11 -->
<g id="node17" class="node"><title>11</title>
<polygon fill="lightyellow" stroke="black" points="4467.96,-819.9 4467.96,-855.9 4564.04,-855.9 4564.04,-819.9 4467.96,-819.9"/>
<text text-anchor="middle" x="4516" y="-833.8" font-family="Times,serif" font-size="14.00">«GLOBAL»</text>
</g>
<!-- 12 -->
<g id="node18" class="node"><title>12</title>
<polygon fill="lightyellow" stroke="black" points="5404.62,-594.7 5404.62,-1081.1 5869.38,-1081.1 5869.38,-594.7 5404.62,-594.7"/>
<text text-anchor="middle" x="5637" y="-1064.5" font-family="Times,serif" font-size="14.00">«GLOBAL»</text>
<polyline fill="none" stroke="black" points="5404.62,-1056.3 5869.38,-1056.3 "/>
<text text-anchor="start" x="5412.62" y="-1039.7" font-family="Times,serif" font-size="14.00">&#45;ADDITEM : variable = ADDITEM</text>
<text text-anchor="start" x="5412.62" y="-1022.9" font-family="Times,serif" font-size="14.00">&#45;CREATEITEM : variable = CREATEITEM</text>
<text text-anchor="start" x="5412.62" y="-1006.1" font-family="Times,serif" font-size="14.00">&#45;DELETEITEM : variable = DELETEITEM</text>
<text text-anchor="start" x="5412.62" y="-989.3" font-family="Times,serif" font-size="14.00">&#45;FETCHITEM : variable = FETCHITEM</text>
<text text-anchor="start" x="5412.62" y="-972.5" font-family="Times,serif" font-size="14.00">&#45;FETCHLISTITEMS : variable = FETCHLISTITEMS</text>
<text text-anchor="start" x="5412.62" y="-955.7" font-family="Times,serif" font-size="14.00">&#45;HOMEPAGEERRORED : variable = HOMEPAGEERRORED</text>
<text text-anchor="start" x="5412.62" y="-938.9" font-family="Times,serif" font-size="14.00">&#45;HOMEPAGELOADED : variable = HOMEPAGELOADED</text>
<text text-anchor="start" x="5412.62" y="-922.1" font-family="Times,serif" font-size="14.00">&#45;HOMEPAGELOADING : variable = HOMEPAGELOADING</text>
<text text-anchor="start" x="5412.62" y="-905.3" font-family="Times,serif" font-size="14.00">&#45;ITEMDETAILPAGEERRORED : variable = ITEMDETAILPAGEERRORED</text>
<text text-anchor="start" x="5412.62" y="-888.5" font-family="Times,serif" font-size="14.00">&#45;ITEMDETAILPAGELOADED : variable = ITEMDETAILPAGELOADED</text>
<text text-anchor="start" x="5412.62" y="-871.7" font-family="Times,serif" font-size="14.00">&#45;ITEMDETAILPAGELOADING : variable = ITEMDETAILPAGELOADING</text>
<text text-anchor="start" x="5412.62" y="-854.9" font-family="Times,serif" font-size="14.00">&#45;LISTITEMSPAGEERRORED : variable = LISTITEMSPAGEERRORED</text>
<text text-anchor="start" x="5412.62" y="-838.1" font-family="Times,serif" font-size="14.00">&#45;LISTITEMSPAGELOADED : variable = LISTITEMSPAGELOADED</text>
<text text-anchor="start" x="5412.62" y="-821.3" font-family="Times,serif" font-size="14.00">&#45;LISTITEMSPAGELOADING : variable = LISTITEMSPAGELOADING</text>
<text text-anchor="start" x="5412.62" y="-804.5" font-family="Times,serif" font-size="14.00">&#45;LOGIN : variable = LOGIN</text>
<text text-anchor="start" x="5412.62" y="-787.7" font-family="Times,serif" font-size="14.00">&#45;LOGINPAGEERRORED : variable = LOGINPAGEERRORED</text>
<text text-anchor="start" x="5412.62" y="-770.9" font-family="Times,serif" font-size="14.00">&#45;LOGINPAGELOADED : variable = LOGINPAGELOADED</text>
<text text-anchor="start" x="5412.62" y="-754.1" font-family="Times,serif" font-size="14.00">&#45;LOGINPAGELOADING : variable = LOGINPAGELOADING</text>
<text text-anchor="start" x="5412.62" y="-737.3" font-family="Times,serif" font-size="14.00">&#45;LOGOUT : variable = LOGOUT</text>
<text text-anchor="start" x="5412.62" y="-720.5" font-family="Times,serif" font-size="14.00">&#45;ORDERPAGEERRORED : variable = ORDERPAGEERRORED</text>
<text text-anchor="start" x="5412.62" y="-703.7" font-family="Times,serif" font-size="14.00">&#45;ORDERPAGELOADED : variable = ORDERPAGELOADED</text>
<text text-anchor="start" x="5412.62" y="-686.9" font-family="Times,serif" font-size="14.00">&#45;ORDERPAGELOADING : variable = ORDERPAGELOADING</text>
<text text-anchor="start" x="5412.62" y="-670.1" font-family="Times,serif" font-size="14.00">&#45;PROFILEPAGEERRORED : variable = PROFILEPAGEERRORED</text>
<text text-anchor="start" x="5412.62" y="-653.3" font-family="Times,serif" font-size="14.00">&#45;PROFILEPAGELOADED : variable = PROFILEPAGELOADED</text>
<text text-anchor="start" x="5412.62" y="-636.5" font-family="Times,serif" font-size="14.00">&#45;PROFILEPAGELOADING : variable = PROFILEPAGELOADING</text>
<text text-anchor="start" x="5412.62" y="-619.7" font-family="Times,serif" font-size="14.00">&#45;REGISTER : variable = REGISTER</text>
<text text-anchor="start" x="5412.62" y="-602.9" font-family="Times,serif" font-size="14.00">&#45;SEARCHITEM : variable = SEARCHITEM</text>
</g>
<!-- 13 -->
<g id="node19" class="node"><title>13</title>
<polygon fill="lightyellow" stroke="black" points="7058.96,-819.9 7058.96,-855.9 7155.04,-855.9 7155.04,-819.9 7058.96,-819.9"/>
<text text-anchor="middle" x="7107" y="-833.8" font-family="Times,serif" font-size="14.00">«GLOBAL»</text>
</g>
<!-- 46 -->
<g id="node20" class="node"><title>46</title>
<polygon fill="khaki" stroke="black" points="6562.56,-817.1 6562.56,-858.7 6645.44,-858.7 6645.44,-817.1 6562.56,-817.1"/>
<text text-anchor="middle" x="6604" y="-842.1" font-family="Times,serif" font-size="14.00">«CLASS»</text>
<text text-anchor="middle" x="6604" y="-825.3" font-family="Times,serif" font-size="14.00"> Navbar</text>
</g>
<!-- 47 -->
<g id="node21" class="node"><title>47</title>
<polygon fill="lightblue" stroke="black" points="6440.81,-158.5 6440.81,-577.7 6767.19,-577.7 6767.19,-158.5 6440.81,-158.5"/>
<text text-anchor="middle" x="6604" y="-561.1" font-family="Times,serif" font-size="14.00">«FUNCTION»</text>
<text text-anchor="middle" x="6604" y="-544.3" font-family="Times,serif" font-size="14.00"> render()</text>
<polyline fill="none" stroke="black" points="6440.81,-536.1 6767.19,-536.1 "/>
<text text-anchor="start" x="6448.81" y="-519.5" font-family="Times,serif" font-size="14.00">&#45;alt : binaryexpression</text>
<text text-anchor="start" x="6448.81" y="-502.7" font-family="Times,serif" font-size="14.00">&#45;className : binaryexpression</text>
<text text-anchor="start" x="6448.81" y="-485.9" font-family="Times,serif" font-size="14.00">&#45;className : string = App&#45;banner</text>
<text text-anchor="start" x="6448.81" y="-469.1" font-family="Times,serif" font-size="14.00">&#45;className : string = btn btn&#45;outline&#45;success my&#45;2 m...</text>
<text text-anchor="start" x="6448.81" y="-452.3" font-family="Times,serif" font-size="14.00">&#45;className : string = collapse navbar&#45;collapse</text>
<text text-anchor="start" x="6448.81" y="-435.5" font-family="Times,serif" font-size="14.00">&#45;className : string = dropdown&#45;item</text>
<text text-anchor="start" x="6448.81" y="-418.7" font-family="Times,serif" font-size="14.00">&#45;className : string = dropdown&#45;menu</text>
<text text-anchor="start" x="6448.81" y="-401.9" font-family="Times,serif" font-size="14.00">&#45;className : string = form&#45;control mr&#45;sm&#45;2</text>
<text text-anchor="start" x="6448.81" y="-385.1" font-family="Times,serif" font-size="14.00">&#45;className : string = nav&#45;link dropdown&#45;toggle</text>
<text text-anchor="start" x="6448.81" y="-368.3" font-family="Times,serif" font-size="14.00">&#45;className : string = nav&#45;link</text>
<text text-anchor="start" x="6448.81" y="-351.5" font-family="Times,serif" font-size="14.00">&#45;className : string = navbar&#45;brand</text>
<text text-anchor="start" x="6448.81" y="-334.7" font-family="Times,serif" font-size="14.00">&#45;className : string = navbar&#45;toggler</text>
<text text-anchor="start" x="6448.81" y="-317.9" font-family="Times,serif" font-size="14.00">&#45;href : binaryexpression</text>
<text text-anchor="start" x="6448.81" y="-301.1" font-family="Times,serif" font-size="14.00">&#45;id : binaryexpression</text>
<text text-anchor="start" x="6448.81" y="-284.3" font-family="Times,serif" font-size="14.00">&#45;id : string = dropdown01</text>
<text text-anchor="start" x="6448.81" y="-267.5" font-family="Times,serif" font-size="14.00">&#45;placeholder : string = Search</text>
<text text-anchor="start" x="6448.81" y="-250.7" font-family="Times,serif" font-size="14.00">&#45;src</text>
<text text-anchor="start" x="6448.81" y="-233.9" font-family="Times,serif" font-size="14.00">&#45;to : binaryexpression</text>
<text text-anchor="start" x="6448.81" y="-217.1" font-family="Times,serif" font-size="14.00">&#45;to : string = http:example.com</text>
<text text-anchor="start" x="6448.81" y="-200.3" font-family="Times,serif" font-size="14.00">&#45;type : binaryexpression</text>
<text text-anchor="start" x="6448.81" y="-183.5" font-family="Times,serif" font-size="14.00">&#45;type : string = button</text>
<text text-anchor="start" x="6448.81" y="-166.7" font-family="Times,serif" font-size="14.00">&#45;type : string = text</text>
</g>
<!-- 46&#45;&gt;47 -->
<g id="edge23" class="edge"><title>46&#45;&gt;47</title>
<path fill="none" stroke="black" d="M6604,-805.023C6604,-757.819 6604,-665.447 6604,-577.838"/>
<polygon fill="black" stroke="black" points="6604,-805.098 6608,-811.098 6604,-817.098 6600,-811.098 6604,-805.098"/>
</g>
<!-- 44 -->
<g id="node23" class="node"><title>44</title>
<polygon fill="khaki" stroke="black" points="909.559,-347.3 909.559,-388.9 992.441,-388.9 992.441,-347.3 909.559,-347.3"/>
<text text-anchor="middle" x="951" y="-372.3" font-family="Times,serif" font-size="14.00">«CLASS»</text>
<text text-anchor="middle" x="951" y="-355.5" font-family="Times,serif" font-size="14.00"> About</text>
</g>
<!-- 45 -->
<g id="node24" class="node"><title>45</title>
<polygon fill="lightblue" stroke="black" points="884.089,-75.1 884.089,-141.5 1071.91,-141.5 1071.91,-75.1 884.089,-75.1"/>
<text text-anchor="middle" x="978" y="-124.9" font-family="Times,serif" font-size="14.00">«FUNCTION»</text>
<text text-anchor="middle" x="978" y="-108.1" font-family="Times,serif" font-size="14.00"> render()</text>
<polyline fill="none" stroke="black" points="884.089,-99.9 1071.91,-99.9 "/>
<text text-anchor="start" x="892.089" y="-83.3" font-family="Times,serif" font-size="14.00">&#45;className : binaryexpression</text>
</g>
<!-- 44&#45;&gt;45 -->
<g id="edge22" class="edge"><title>44&#45;&gt;45</title>
<path fill="none" stroke="black" d="M954.34,-335.212C959.508,-285.867 969.389,-191.522 974.596,-141.805"/>
<polygon fill="black" stroke="black" points="954.324,-335.364 957.677,-341.748 953.074,-347.299 949.721,-340.915 954.324,-335.364"/>
</g>
<!-- 2 -->
<g id="node25" class="node"><title>2</title>
<polygon fill="lightyellow" stroke="black" points="7754.96,-819.9 7754.96,-855.9 7851.04,-855.9 7851.04,-819.9 7754.96,-819.9"/>
<text text-anchor="middle" x="7803" y="-833.8" font-family="Times,serif" font-size="14.00">«GLOBAL»</text>
</g>
<!-- 3 -->
<g id="node26" class="node"><title>3</title>
<polygon fill="lightyellow" stroke="black" points="8556.1,-779.5 8556.1,-896.3 8789.9,-896.3 8789.9,-779.5 8556.1,-779.5"/>
<text text-anchor="middle" x="8673" y="-879.7" font-family="Times,serif" font-size="14.00">«GLOBAL»</text>
<polyline fill="none" stroke="black" points="8556.1,-871.5 8789.9,-871.5 "/>
<text text-anchor="start" x="8564.1" y="-854.9" font-family="Times,serif" font-size="14.00">&#45;composedEnhancers : variable</text>
<text text-anchor="start" x="8564.1" y="-838.1" font-family="Times,serif" font-size="14.00">&#45;enhancers : array</text>
<text text-anchor="start" x="8564.1" y="-821.3" font-family="Times,serif" font-size="14.00">&#45;history : variable</text>
<text text-anchor="start" x="8564.1" y="-804.5" font-family="Times,serif" font-size="14.00">&#45;middleware : array</text>
<text text-anchor="start" x="8564.1" y="-787.7" font-family="Times,serif" font-size="14.00">&#45;store : variable = composedEnhancers</text>
</g>
<!-- 5 -->
<g id="node28" class="node"><title>5</title>
<polygon fill="lightyellow" stroke="black" points="8624.96,-350.1 8624.96,-386.1 8721.04,-386.1 8721.04,-350.1 8624.96,-350.1"/>
<text text-anchor="middle" x="8673" y="-364" font-family="Times,serif" font-size="14.00">«GLOBAL»</text>
</g>
<!-- 3&#45;&gt;5 -->
<g id="edge12" class="edge"><title>3&#45;&gt;5</title>
<path fill="none" stroke="black" d="M8673,-771.133C8673,-687.099 8673,-541.658 8673,-450.661"/>
<polygon fill="black" stroke="black" points="8676.5,-450.63 8673,-440.63 8669.5,-450.63 8676.5,-450.63"/>
</g>
<!-- 4 -->
<g id="node27" class="node"><title>4</title>
<polygon fill="lightyellow" stroke="black" points="9515.96,-819.9 9515.96,-855.9 9612.04,-855.9 9612.04,-819.9 9515.96,-819.9"/>
<text text-anchor="middle" x="9564" y="-833.8" font-family="Times,serif" font-size="14.00">«GLOBAL»</text>
</g>
<!-- 28 -->
<g id="node29" class="node"><title>28</title>
<polygon fill="lightblue" stroke="black" points="8455.56,-347.3 8455.56,-388.9 8592.44,-388.9 8592.44,-347.3 8455.56,-347.3"/>
<text text-anchor="middle" x="8524" y="-372.3" font-family="Times,serif" font-size="14.00">«FUNCTION»</text>
<text text-anchor="middle" x="8524" y="-355.5" font-family="Times,serif" font-size="14.00"> homeErrored(action)</text>
</g>
<!-- 29 -->
<g id="node30" class="node"><title>29</title>
<polygon fill="khaki" stroke="black" points="8477.51,-87.5 8477.51,-129.1 8570.49,-129.1 8570.49,-87.5 8477.51,-87.5"/>
<text text-anchor="middle" x="8524" y="-112.5" font-family="Times,serif" font-size="14.00">«SWITCH»</text>
<text text-anchor="middle" x="8524" y="-95.7" font-family="Times,serif" font-size="14.00"> switch</text>
</g>
<!-- 28&#45;&gt;29 -->
<g id="edge13" class="edge"><title>28&#45;&gt;29</title>
<path fill="none" stroke="black" d="M8524,-335.109C8524,-281.142 8524,-173.564 8524,-129.169"/>
<polygon fill="black" stroke="black" points="8524,-335.299 8528,-341.299 8524,-347.299 8520,-341.299 8524,-335.299"/>
</g>
<!-- 30 -->
<g id="node31" class="node"><title>30</title>
<polygon fill="lightblue" stroke="black" points="8256.6,-347.3 8256.6,-388.9 8397.4,-388.9 8397.4,-347.3 8256.6,-347.3"/>
<text text-anchor="middle" x="8327" y="-372.3" font-family="Times,serif" font-size="14.00">«FUNCTION»</text>
<text text-anchor="middle" x="8327" y="-355.5" font-family="Times,serif" font-size="14.00"> homeLaoding(action)</text>
</g>
<!-- 31 -->
<g id="node32" class="node"><title>31</title>
<polygon fill="khaki" stroke="black" points="8280.51,-87.5 8280.51,-129.1 8373.49,-129.1 8373.49,-87.5 8280.51,-87.5"/>
<text text-anchor="middle" x="8327" y="-112.5" font-family="Times,serif" font-size="14.00">«SWITCH»</text>
<text text-anchor="middle" x="8327" y="-95.7" font-family="Times,serif" font-size="14.00"> switch</text>
</g>
<!-- 30&#45;&gt;31 -->
<g id="edge14" class="edge"><title>30&#45;&gt;31</title>
<path fill="none" stroke="black" d="M8327,-335.109C8327,-281.142 8327,-173.564 8327,-129.169"/>
<polygon fill="black" stroke="black" points="8327,-335.299 8331,-341.299 8327,-347.299 8323,-341.299 8327,-335.299"/>
</g>
<!-- 32 -->
<g id="node33" class="node"><title>32</title>
<polygon fill="lightblue" stroke="black" points="7982.36,-347.3 7982.36,-388.9 8147.64,-388.9 8147.64,-347.3 7982.36,-347.3"/>
<text text-anchor="middle" x="8065" y="-372.3" font-family="Times,serif" font-size="14.00">«FUNCTION»</text>
<text text-anchor="middle" x="8065" y="-355.5" font-family="Times,serif" font-size="14.00"> homeLoaded(state,action)</text>
</g>
<!-- 33 -->
<g id="node34" class="node"><title>33</title>
<polygon fill="khaki" stroke="black" points="8018.51,-87.5 8018.51,-129.1 8111.49,-129.1 8111.49,-87.5 8018.51,-87.5"/>
<text text-anchor="middle" x="8065" y="-112.5" font-family="Times,serif" font-size="14.00">«SWITCH»</text>
<text text-anchor="middle" x="8065" y="-95.7" font-family="Times,serif" font-size="14.00"> switch</text>
</g>
<!-- 32&#45;&gt;33 -->
<g id="edge15" class="edge"><title>32&#45;&gt;33</title>
<path fill="none" stroke="black" d="M8065,-335.109C8065,-281.142 8065,-173.564 8065,-129.169"/>
<polygon fill="black" stroke="black" points="8065,-335.299 8069,-341.299 8065,-347.299 8061,-341.299 8065,-335.299"/>
</g>
<!-- 6 -->
<g id="node35" class="node"><title>6</title>
<polygon fill="lightyellow" stroke="black" points="10498,-819.9 10498,-855.9 10594,-855.9 10594,-819.9 10498,-819.9"/>
<text text-anchor="middle" x="10546" y="-833.8" font-family="Times,serif" font-size="14.00">«GLOBAL»</text>
</g>
<!-- 7 -->
<g id="node36" class="node"><title>7</title>
<polygon fill="lightyellow" stroke="black" points="11553,-819.9 11553,-855.9 11649,-855.9 11649,-819.9 11553,-819.9"/>
<text text-anchor="middle" x="11601" y="-833.8" font-family="Times,serif" font-size="14.00">«GLOBAL»</text>
</g>
<!-- 8 -->
<g id="node37" class="node"><title>8</title>
<polygon fill="lightyellow" stroke="black" points="13087,-819.9 13087,-855.9 13183,-855.9 13183,-819.9 13087,-819.9"/>
<text text-anchor="middle" x="13135" y="-833.8" font-family="Times,serif" font-size="14.00">«GLOBAL»</text>
</g>
<!-- 34 -->
<g id="node38" class="node"><title>34</title>
<polygon fill="lightblue" stroke="black" points="12890.7,-817.1 12890.7,-858.7 13067.3,-858.7 13067.3,-817.1 12890.7,-817.1"/>
<text text-anchor="middle" x="12979" y="-842.1" font-family="Times,serif" font-size="14.00">«FUNCTION»</text>
<text text-anchor="middle" x="12979" y="-825.3" font-family="Times,serif" font-size="14.00"> homePageLoaded(message)</text>
</g>
<!-- 35 -->
<g id="node39" class="node"><title>35</title>
<polygon fill="lightblue" stroke="black" points="12699.7,-817.1 12699.7,-858.7 12858.3,-858.7 12858.3,-817.1 12699.7,-817.1"/>
<text text-anchor="middle" x="12779" y="-842.1" font-family="Times,serif" font-size="14.00">«FUNCTION»</text>
<text text-anchor="middle" x="12779" y="-825.3" font-family="Times,serif" font-size="14.00"> homePageLoading(bool)</text>
</g>
<!-- 36 -->
<g id="node40" class="node"><title>36</title>
<polygon fill="lightblue" stroke="black" points="12486.6,-817.1 12486.6,-858.7 12641.4,-858.7 12641.4,-817.1 12486.6,-817.1"/>
<text text-anchor="middle" x="12564" y="-842.1" font-family="Times,serif" font-size="14.00">«FUNCTION»</text>
<text text-anchor="middle" x="12564" y="-825.3" font-family="Times,serif" font-size="14.00"> homePageErrored(bool)</text>
</g>
<!-- 37 -->
<g id="node41" class="node"><title>37</title>
<polygon fill="lightblue" stroke="black" points="12268,-817.1 12268,-858.7 12378,-858.7 12378,-817.1 12268,-817.1"/>
<text text-anchor="middle" x="12323" y="-842.1" font-family="Times,serif" font-size="14.00">«FUNCTION»</text>
<text text-anchor="middle" x="12323" y="-825.3" font-family="Times,serif" font-size="14.00"> fetchStrains()</text>
</g>
<!-- 38 -->
<g id="node42" class="node"><title>38</title>
<polygon fill="lightblue" stroke="black" points="12268,-347.3 12268,-388.9 12378,-388.9 12378,-347.3 12268,-347.3"/>
<text text-anchor="middle" x="12323" y="-372.3" font-family="Times,serif" font-size="14.00">«FUNCTION»</text>
<text text-anchor="middle" x="12323" y="-355.5" font-family="Times,serif" font-size="14.00"> function</text>
</g>
<!-- 37&#45;&gt;38 -->
<g id="edge16" class="edge"><title>37&#45;&gt;38</title>
<path fill="none" stroke="black" d="M12323,-805.08C12323,-715.293 12323,-461.763 12323,-388.907"/>
<polygon fill="black" stroke="black" points="12323,-805.098 12327,-811.098 12323,-817.098 12319,-811.098 12323,-805.098"/>
</g>
<!-- 39 -->
<g id="node43" class="node"><title>39</title>
<polygon fill="lightblue" stroke="black" points="12145,-87.5 12145,-129.1 12255,-129.1 12255,-87.5 12145,-87.5"/>
<text text-anchor="middle" x="12200" y="-112.5" font-family="Times,serif" font-size="14.00">«FUNCTION»</text>
<text text-anchor="middle" x="12200" y="-95.7" font-family="Times,serif" font-size="14.00"> function</text>
</g>
<!-- 38&#45;&gt;39 -->
<g id="edge17" class="edge"><title>38&#45;&gt;39</title>
<path fill="none" stroke="black" d="M12308.4,-336.466C12282.9,-282.966 12230.8,-173.94 12209.5,-129.169"/>
<polygon fill="black" stroke="black" points="12308.4,-336.468 12314.6,-340.161 12313.6,-347.299 12307.4,-343.606 12308.4,-336.468"/>
</g>
<!-- 41 -->
<g id="node45" class="node"><title>41</title>
<polygon fill="lightblue" stroke="black" points="12262,-87.5 12262,-129.1 12372,-129.1 12372,-87.5 12262,-87.5"/>
<text text-anchor="middle" x="12317" y="-112.5" font-family="Times,serif" font-size="14.00">«FUNCTION»</text>
<text text-anchor="middle" x="12317" y="-95.7" font-family="Times,serif" font-size="14.00"> function</text>
</g>
<!-- 38&#45;&gt;41 -->
<g id="edge19" class="edge"><title>38&#45;&gt;41</title>
<path fill="none" stroke="black" d="M12322.3,-335.109C12321,-281.142 12318.5,-173.564 12317.5,-129.169"/>
<polygon fill="black" stroke="black" points="12322.3,-335.302 12326.4,-341.207 12322.5,-347.299 12318.4,-341.394 12322.3,-335.302"/>
</g>
<!-- 42 -->
<g id="node46" class="node"><title>42</title>
<polygon fill="lightblue" stroke="black" points="12379,-87.5 12379,-129.1 12489,-129.1 12489,-87.5 12379,-87.5"/>
<text text-anchor="middle" x="12434" y="-112.5" font-family="Times,serif" font-size="14.00">«FUNCTION»</text>
<text text-anchor="middle" x="12434" y="-95.7" font-family="Times,serif" font-size="14.00"> function</text>
</g>
<!-- 38&#45;&gt;42 -->
<g id="edge20" class="edge"><title>38&#45;&gt;42</title>
<path fill="none" stroke="black" d="M12336.3,-336.129C12359.4,-282.509 12406.2,-173.846 12425.4,-129.169"/>
<polygon fill="black" stroke="black" points="12336.3,-336.277 12337.6,-343.37 12331.5,-347.299 12330.2,-340.206 12336.3,-336.277"/>
</g>
<!-- 43 -->
<g id="node47" class="node"><title>43</title>
<polygon fill="lightblue" stroke="black" points="12496,-87.5 12496,-129.1 12606,-129.1 12606,-87.5 12496,-87.5"/>
<text text-anchor="middle" x="12551" y="-112.5" font-family="Times,serif" font-size="14.00">«FUNCTION»</text>
<text text-anchor="middle" x="12551" y="-95.7" font-family="Times,serif" font-size="14.00"> function</text>
</g>
<!-- 38&#45;&gt;43 -->
<g id="edge21" class="edge"><title>38&#45;&gt;43</title>
<path fill="none" stroke="black" d="M12348.6,-338.13C12395.4,-285.259 12493.4,-174.409 12533.4,-129.169"/>
<polygon fill="black" stroke="black" points="12348.5,-338.31 12347.5,-345.454 12340.5,-347.299 12341.5,-340.155 12348.5,-338.31"/>
</g>
<!-- 40 -->
<g id="node44" class="node"><title>40</title>
<polygon fill="khaki" stroke="black" points="12143.6,-16.5 12143.6,-58.1 12256.4,-58.1 12256.4,-16.5 12143.6,-16.5"/>
<text text-anchor="middle" x="12200" y="-41.5" font-family="Times,serif" font-size="14.00">«BLOCK»</text>
<text text-anchor="middle" x="12200" y="-24.7" font-family="Times,serif" font-size="14.00"> ThrowStatement</text>
</g>
<!-- 39&#45;&gt;40 -->
<g id="edge18" class="edge"><title>39&#45;&gt;40</title>
<path fill="none" stroke="black" d="M12200,-75.2248C12200,-69.5128 12200,-63.7116 12200,-58.4518"/>
<polygon fill="black" stroke="black" points="12200,-75.3423 12204,-81.3424 12200,-87.3423 12196,-81.3423 12200,-75.3423"/>
</g>
<!-- 9 -->
<g id="node48" class="node"><title>9</title>
<polygon fill="lightyellow" stroke="black" points="13697,-819.9 13697,-855.9 13793,-855.9 13793,-819.9 13697,-819.9"/>
<text text-anchor="middle" x="13745" y="-833.8" font-family="Times,serif" font-size="14.00">«GLOBAL»</text>
</g>
</g>
</svg>
